# xmcd
#
# Track frame offsets:
#	150
#	19555
#	32210
#	53385
#	75213
#	97800
#	115740
#	133183
#	149768
#	172985
#	188483
#	223425
#
# Disc length: 3284 seconds
#
# Revision: 0
# Processed by: cddbd v1.5.2PL0 Copyright (c) Steve Scherf et al.
# Submitted via: dBpowerAMP V4.0
#
DISCID=980cd20c
DTITLE=鄭秀文 - Sammi Star Show
DYEAR=1998
DGENRE=Country
TTITLE0=非男非女 Live
TTITLE1=星秀傳說 Everyone Is A Super Star  Live
TTITLE2=談情說愛 Live
TTITLE3=依靠 Live
TTITLE4=放不低 Live
TTITLE5=女人本色 Live
TTITLE6=小心女人 Live
TTITLE7=默契 Live
TTITLE8=不拖不欠 Live
TTITLE9=加爾各塔的天使 - 德蘭修女 Live
TTITLE10=Women In Love Live
TTITLE11=唯獨你是不可取替 Live
EXTD=
EXTT0=
EXTT1=
EXTT2=
EXTT3=
EXTT4=
EXTT5=
EXTT6=
EXTT7=
EXTT8=
EXTT9=
EXTT10=
EXTT11=
PLAYORDER=
